HIERARCHY
ROOT hip
{
  OFFSET 0.0 0.0 0.0
  CHANNELS 6 Xposition Yposition Zposition Zrotation Yrotation Xrotation
  JOINT torso
  {
    OFFSET 0.0 0.0 0.0
    CHANNELS 3 Zrotation Xrotation Yrotation
    JOINT neck
    {
      OFFSET -31.42098999999993 328.8025209999999 74.3554680000002
      CHANNELS 3 Zrotation Xrotation Yrotation
      JOINT head
      {
        OFFSET 3.3519900000001144 303.81732099999994 206.53942900000015
        CHANNELS 3 Zrotation Xrotation Yrotation
        End Site
        {
          OFFSET 0.0 0.0 0.0
        }
      }
    }
    JOINT left_collar
    {
      OFFSET -31.42098999999993 328.8025209999999 74.3554680000002
      CHANNELS 3 Zrotation Xrotation Yrotation
      JOINT left_upper_arm
      {
        OFFSET -124.490479 -8.162841999999841 8.226441000000023
        CHANNELS 3 Zrotation Xrotation Yrotation
        JOINT left_forearm
        {
          OFFSET -253.595764 -1.5758060000000569 105.0729980000001
          CHANNELS 3 Zrotation Xrotation Yrotation
          JOINT left_hand
          {
            OFFSET -269.48803699999996 0.1478270000000066 -55.346191999999974
            CHANNELS 3 Zrotation Xrotation Yrotation
            End Site
            {
              OFFSET 0.0 0.0 0.0
            }
          }
        }
      }
    }
    JOINT right_collar
    {
      OFFSET -31.42098999999993 328.8025209999999 74.3554680000002
      CHANNELS 3 Zrotation Xrotation Yrotation
      JOINT right_upper_arm
      {
        OFFSET 162.02484099999998 0.46441600000002836 2.2303470000001653
        CHANNELS 3 Zrotation Xrotation Yrotation
        JOINT right_forearm
        {
          OFFSET 240.01246700000004 -25.835875999999985 121.34179699999959
          CHANNELS 3 Zrotation Xrotation Yrotation
          JOINT right_hand
          {
            OFFSET 252.48539699999992 18.910399999999868 -67.53466800000001
            CHANNELS 3 Zrotation Xrotation Yrotation
            End Site
            {
              OFFSET 0.0 0.0 0.0
            }
          }
        }
      }
    }
  }
}
MOTION
Frames: 19
Frame Time: 0.01
-277.3823905122927 203.83790662829003 489.6593484314777 1.6327481880990584 -1.6450011377253746 0.039086276124093884 0.32771964471552856 -0.5209689802925659 -0.12529121965879345 -5.950234553014175 -4.392562749982361 4.216129435619353 0.0 0.0 0.0 6.23734510275042 -0.9734118893884847 11.53086962632047 41.92497933882912 11.69386106189027 14.930686963617346 41.06223208577013 -4.703126374268739 -10.708929513713189 0.0 0.0 0.0 1.9785172384751801 -0.19113676449627956 8.117120872947964 -32.57598668822344 7.296183736092156 -22.506693790205016 -55.551764340243444 9.00930542783833 54.69571283242819 0.0 0.0 0.0
-275.22325930308904 202.94424088816467 492.627396552212 1.589759006512216 -1.9752652501406605 0.31485883292742806 0.2968652360384317 -0.5621017177781056 -0.12220011533350056 -5.9450621413373765 -4.09842328305168 4.201594031572213 0.0 0.0 0.0 6.219940355038906 -0.9585456400243048 11.412293414013853 41.91433793842624 11.76964544120446 14.739394337199139 41.09343375512092 -4.661552689540242 -10.829194397590815 0.0 0.0 0.0 1.9500489939828916 -0.1866437535363756 8.013367873171806 -32.82482640020933 7.524918853514784 -22.151249676646817 -54.8045430127253 8.985926051358971 55.076459540899435 0.0 0.0 0.0
-273.1523008573463 202.07211839879787 495.5425436758068 1.5419860432350927 -2.2949087070594065 0.5831214399741144 0.2671712323612581 -0.5993947305374538 -0.11898131561544939 -5.9384774013607196 -3.8197393636523986 4.18662500153726 0.0 0.0 0.0 6.206259793070336 -0.9453992071539841 11.306697422800514 41.90363541792122 11.842566015970935 14.555024213685764 41.12044713597275 -4.620507994514997 -10.946533055237591 0.0 0.0 0.0 1.9235017021149454 -0.18256137589059898 7.919665746263051 -33.07937182045395 7.758156870934838 -21.79498480781421 -54.10522914536809 8.927742347239278 55.36118512513056 0.0 0.0 0.0
-271.1756288392481 201.23202574912645 498.3934626248548 1.4890187321114008 -2.601825836107363 0.8434051702162569 0.2390981490036104 -0.6325338423626323 -0.11571492576572517 -5.930666702732383 -3.558250703672873 4.171426335137931 0.0 0.0 0.0 6.1961004628462835 -0.9339889930904512 11.214402706005178 41.89414071255816 11.911752243970303 14.380627927944609 41.1439101097417 -4.580410804769238 -11.06008634838954 0.0 0.0 0.0 1.898986747285535 -0.17889493155926833 7.836423686305893 -33.33795024267537 7.995091041893976 -21.438717703094774 -53.459037084376256 8.837224121775424 55.54714239479222 0.0 0.0 0.0
-269.2989311339647 200.4341356868409 501.1692541150131 1.430619811111761 -2.8939478610319846 1.0955096882943738 0.2130579297274754 -0.6613835327988437 -0.11248762229835764 -5.921793345480388 -3.315414547935776 4.156174209428119 0.0 0.0 0.0 6.189168907079565 -0.9242957323919672 11.135430929213971 41.88703959120243 11.976399355660186 14.219050963276823 41.16458501215338 -4.541656591771631 -11.169087610538586 0.0 0.0 0.0 1.8765625643574062 -0.17564107661328213 7.763806384672376 -33.5989870905565 8.234822486777208 -21.0834626165579 -52.87027238737109 8.71682707891627 55.6325482111764 0.0 0.0 0.0
-267.5274260259471 199.68805363977424 503.8596137391152 1.3667265106462188 -3.1692934327928812 1.3395081620141087 0.18939815599521967 -0.6859743294092769 -0.10938732300689887 -5.911982687259932 -3.092372694945296 4.141005369861918 0.0 0.0 0.0 6.185091764349939 -0.9162657414591855 11.069510590713453 41.883394434087656 12.035782379181445 14.072863822682596 41.18334887951484 -4.504610969589178 -11.272875737229041 0.0 0.0 0.0 1.8562372126771325 -0.17278850935082848 7.701730646825427 -33.86100689653254 8.476346798149661 -20.730456034045826 -52.342280643995934 8.56894397253423 55.61668483193459 0.0 0.0 0.0
-265.86582427128644 199.00258152285173 506.4549878773551 1.2974475561611105 -3.4260184886573635 1.5757430418875682 0.16838978185281397 -0.7064840293355125 -0.10649814887843483 -5.901310986684571 -2.8899267120117043 4.126008507617001 0.0 0.0 0.0 6.183429957572386 -0.9098131899418914 11.016093445599523 41.88410722904759 12.089268174594238 13.944298847038015 41.201179034437295 -4.469605104571961 -11.370901713132895 0.0 0.0 0.0 1.837972629011768 -0.1703188161786121 7.649870880886843 -34.12262958010949 8.718540105912657 -20.381180209327084 -51.877422248645814 8.395871592210563 55.499985870464876 0.0 0.0 0.0
-264.31829601915035 198.3855076140278 508.94671458135355 1.2230565643489693 -3.662462896506094 1.8048131420272784 0.15021901737967946 -0.7232144460850886 -0.1038960172324178 -5.889798548521448 -2.7085223255704114 4.111219031788388 0.0 0.0 0.0 6.183695848000481 -0.9048233171893976 10.97438015020152 41.88988750046332 12.136325495006918 13.835195066100383 41.21913409798247 -4.4369334847705915 -11.462728303179283 0.0 0.0 0.0 1.8216902425241184 -0.16820743794108153 7.607673194747565 -34.382562958438754 8.960145643182662 -20.03738217455882 -51.47707478264475 8.199795447928752 55.28410300767645 0.0 0.0 0.0
-262.88844155520053 197.8434299794553 511.3271464354463 1.1439824779076726 -3.8771916790410583 2.0275526912990034 0.13498365719989125 -0.7365654162027013 -0.10164511506055844 -5.877407416270834 -2.5482436338257517 4.096617389957849 0.0 0.0 0.0 6.185372518938364 -0.9011564867251667 10.94335375073484 41.90122684463557 12.176533138306509 13.746953087042112 41.23833075142039 -4.406853969235788 -11.548023214182114 0.0 0.0 0.0 1.8072775967699033 -0.16642472247119874 7.574377421851995 -34.63959259779998 9.199762172359627 -19.701086310340198 -51.14166358818815 7.982792471908118 54.97194940255464 0.0 0.0 0.0
-261.57926495065215 197.38161923207124 513.5897534409971 1.060797691720902 -4.069029036353095 2.2450032180053205 0.12269382194931332 -0.7470077493171967 -0.09979540317880484 -5.864043521063288 -2.4088174289648645 4.082130853503813 0.0 0.0 0.0 6.187934177301038 -0.8986529363516806 10.921819307102004 41.91838159690632 12.2095862323651 13.680501910665017 41.259916837248646 -4.379589819314713 -11.62654663479045 0.0 0.0 0.0 1.7945956169830766 -0.16493703397506185 7.549046008846141 -34.89257022800259 9.435835911656184 -19.374598284857786 -50.87071991014806 7.746850341087253 54.56771567010353 0.0 0.0 0.0
-260.3931498666509 197.00392442038344 515.7292049790761 0.9742044840518732 -4.237083878106743 2.4583792929182318 0.11327678204265566 -0.7550566593975546 -0.09838120500854851 -5.849562891248991 -2.289627538120615 4.067638471928277 0.0 0.0 0.0 6.190866515363994 -0.8971380412848224 10.908447677195682 41.94136491271402 12.235300616810063 13.636279409207159 41.28504167663927 -4.355333221018694 -11.698134617322378 0.0 0.0 0.0 1.7834861724067586 -0.16370789270744376 7.530598360145328 -35.14040197406887 9.666657795841175 -19.060498040679832 -50.6629646694843 7.49390032737679 54.07685446532074 0.0 0.0 0.0
-259.3318369609594 196.7127236905968 517.7414308033876 0.8850202916006371 -4.380766115757084 2.669029286218698 0.10658528883254538 -0.7612469829289433 -0.09742084648823242 -5.833781274758986 -2.189738706312201 4.052978724761325 0.0 0.0 0.0 6.1936857825508 -0.8964278700269184 10.901821329786 41.96994920154042 12.253615179147385 13.614227933650666 41.314824761805 -4.334249668340965 -11.762680191411558 0.0 0.0 0.0 1.7737796035512468 -0.16269911870610013 7.517848973002114 -35.382037600871016 9.890367960491277 -18.761619587949657 -50.5164145360208 7.2258590961847275 53.50603024164849 0.0 0.0 0.0
-258.3964025634232 196.50891921149966 519.6236617573253 0.7941622675573726 -4.499793516184365 2.878392393594429 0.102408664115859 -0.7661111945182022 -0.09691724202754415 -5.8164863379376746 -2.107929169306358 4.037959266271319 0.0 0.0 0.0 6.1959553315166005 -0.8963347875379618 10.900480045581048 42.00367938298466 12.264591911711953 13.613806058786235 41.3503242135503 -4.316482513662921 -11.820114323365365 0.0 0.0 0.0 1.7653019003230443 -0.16187195104751073 7.509547542018033 -35.61646180862344 10.104969209139078 -18.48101570493584 -50.42850552866507 6.9446737859453584 52.86303173126266 0.0 0.0 0.0
-257.587238527462 196.39197388716113 521.3744514790988 0.7026314498140507 -4.594189444715836 3.087953257421023 0.1004858024118553 -0.7701609020372782 -0.09685926945993 -5.797451488170839 -2.0427307199616616 4.022368071689382 0.0 0.0 0.0 6.197298572763125 -0.8966728542959604 10.902964509957144 42.04189682064024 12.268413404187685 13.634016789897185 41.39250653034007 -4.30215700808486 -11.870388824621816 0.0 0.0 0.0 1.7578812201213403 -0.16118810966852076 7.504419182075358 -35.8426883657248 10.308350873323356 -18.22190627877287 -50.396227982517715 6.652364183649785 52.15664617295748 0.0 0.0 0.0
-256.90403342277193 196.35998575394663 522.9936807538148 0.6114967594197208 -4.6642722937164 3.299195553477205 0.10051921962051831 -0.773872175323085 -0.09722374600897696 -5.776450329700882 -1.9924747726413117 4.00598525809444 0.0 0.0 0.0 6.197407597757313 -0.8972627848011762 10.907856069117567 42.08377306333374 12.265377487066559 13.673451690359535 41.44221916317419 -4.29138324230403 -11.913463077332239 0.0 0.0 0.0 1.7513534388164889 -0.16061076246454972 7.501203009469163 -36.05975756143252 10.498323900849513 -17.98760994051267 -50.41626556437465 6.35105598341631 51.39649625611661 0.0 0.0 0.0
-256.3457554947817 196.40979471269944 524.4825463990815 0.5218789642119857 -4.7106377691490975 3.5135559312163767 0.10218932536213184 -0.7776747703995435 -0.09797780651894485 -5.753270803027806 -1.955342687495071 3.9885948695112146 0.0 0.0 0.0 6.196047152001503 -0.8979362635504949 10.913811280269137 42.128351778139496 12.255888805618675 13.730349440065103 41.50016731945541 -4.284257543146442 -11.949296015961444 0.0 0.0 0.0 1.7455664666173945 -0.16010535984948143 7.498687514347058 -36.26673717862173 10.67266723939209 -17.78145982124421 -50.485130334854084 6.043000000888747 50.59284299478816 0.0 0.0 0.0
-255.91063805507247 196.53711535094757 525.8435366447853 0.4349346889017688 -4.734135466032174 3.732379678744428 0.10516818802230089 -0.7819450795709222 -0.09908149156420992 -5.727728169332425 -1.929418445002635 3.9699959797710913 0.0 0.0 0.0 6.193054068109519 -0.8985394671007327 10.91959030628004 42.17459661968125 12.240447240313655 13.802666414104245 41.566896137400946 -4.2808620664569395 -11.97784422415798 0.0 0.0 0.0 1.7403831606001545 -0.1596403052324555 7.49574143823453 -36.46272699391306 10.829184685508569 -17.60670559315019 -50.599285867091574 5.730573717410723 49.756360030697344 0.0 0.0 0.0
-255.5961681562887 196.73668902594125 527.0803948984972 0.35184053001902876 -4.735841298748957 3.9568794194020764 0.1091321864330089 -0.7870024683600269 -0.100490372084403 -5.699676167952643 -1.912741679362416 3.9500125707658804 0.0 0.0 0.0 6.188332636428677 -0.8989357029954136 10.924078659428828 42.221442344037314 12.219633293870316 13.888156083008512 41.64277900161764 -4.281262533463143 -11.999066339373647 0.0 0.0 0.0 1.7356828114527836 -0.15918744266612156 7.491339233968702 -36.64686672097014 10.965770421805539 -17.46640533066624 -50.75525123305658 5.416263443688333 48.89788692484889 0.0 0.0 0.0
-255.39907952086244 197.00244811464484 528.1980735802262 0.2737773359222003 -4.717027377572665 4.188098027162214 0.1137730887539079 -0.7931085383092245 -0.10215806410588377 -5.669015880111956 -1.9033590988211402 3.928501778552903 0.0 0.0 0.0 6.181846668645793 -0.8990071444951179 10.926302258514344 42.26784628363762 12.194090814986433 13.984453455780155 41.728012322867926 -4.285504259279412 -12.012933287740188 0.0 0.0 0.0 1.7313613236640808 -0.1587223585638398 7.4845806191844675 -36.818347272314874 11.080480544960437 -17.36331198201285 -50.949680203914575 5.102627471570532 48.0281706538439 0.0 0.0 0.0
